<svg xmlns="http://www.w3.org/2000/svg" xmlns:xlink="http://www.w3.org/1999/xlink" width="1920" height="1080" viewBox="0 0 1920 1080">
  <defs>
    <filter id="Path_287" x="257.113" y="293.379" width="703.539" height="674.237" filterUnits="userSpaceOnUse">
      <feOffset dy="3" input="SourceAlpha"/>
      <feGaussianBlur stdDeviation="3" result="blur"/>
      <feFlood flood-opacity="0.161"/>
      <feComposite operator="in" in2="blur"/>
      <feComposite in="SourceGraphic"/>
    </filter>
    <filter id="Path_287-2" x="959.344" y="293.379" width="703.539" height="674.237" filterUnits="userSpaceOnUse">
      <feOffset dy="3" input="SourceAlpha"/>
      <feGaussianBlur stdDeviation="3" result="blur-2"/>
      <feFlood flood-opacity="0.161"/>
      <feComposite operator="in" in2="blur-2"/>
      <feComposite in="SourceGraphic"/>
    </filter>
    <radialGradient id="radial-gradient" cx="0.5" cy="0.5" r="0.5" gradientUnits="objectBoundingBox">
      <stop offset="0" stop-color="#adbdf8" stop-opacity="0"/>
      <stop offset="1" stop-color="#dce4fe" stop-opacity="0.388"/>
    </radialGradient>
    <linearGradient id="linear-gradient" x1="0.5" x2="0.5" y2="1" gradientUnits="objectBoundingBox">
      <stop offset="0" stop-color="#99adf9"/>
      <stop offset="1" stop-color="#4065e9"/>
    </linearGradient>
    <linearGradient id="linear-gradient-2" x1="0.5" x2="0.5" y2="1" gradientUnits="objectBoundingBox">
      <stop offset="0" stop-color="#adbdf8"/>
      <stop offset="1" stop-color="#4267ee"/>
    </linearGradient>
    <linearGradient id="linear-gradient-3" x1="0.5" x2="0.5" y2="1" gradientUnits="objectBoundingBox">
      <stop offset="0" stop-color="#526dcf"/>
      <stop offset="1" stop-color="#4d70ef"/>
    </linearGradient>
    <clipPath id="clip-history">
      <rect width="1920" height="1080"/>
    </clipPath>
  </defs>
  <g id="history" clip-path="url(#clip-history)">
    <rect id="background" width="1920" height="1080" fill="#adbdf8"/>
    <path id="desc" d="M40.838,0H1539.582c22.554,0,40.838,13.47,40.838,30.087V749.913c0,16.616-18.284,30.087-40.838,30.087H40.838C18.284,780,0,766.53,0,749.913V30.087C0,13.47,18.284,0,40.838,0Z" transform="translate(169.79 200)" fill="#fff"/>
    <text id="HISTORY-2" data-name="HISTORY" transform="translate(960 250)" fill="#2c57f3" font-size="36" font-family="Arial-BoldMT, Arial" font-weight="700"><tspan x="-79.014" y="0">HISTORY</tspan></text>
    <g id="chart" transform="translate(-761.886 -197.981)">
      <g transform="matrix(1, 0, 0, 1, 761.89, 197.98)" filter="url(#Path_287)">
        <g id="Path_287-3" data-name="Path 287" transform="translate(266.11 299.38)" fill="#fff">
          <path d="M 631.1799926757813 653.2372436523438 L 54.35998916625977 653.2372436523438 C 47.33762359619141 653.2372436523438 40.53135299682617 652.1793823242188 34.1302604675293 650.0931396484375 C 27.98344421386719 648.0897827148438 22.4732608795166 645.2296752929688 17.7528076171875 641.5923461914063 C 13.09017086029053 637.99951171875 9.439352989196777 633.8336791992188 6.901716232299805 629.210693359375 C 4.312716484069824 624.4939575195313 2.999989032745361 619.4940185546875 2.999989032745361 614.3496704101563 L 2.999989032745361 41.88750076293945 C 2.999989032745361 36.74313735961914 4.312716484069824 31.74322700500488 6.901716232299805 27.02659225463867 C 9.439352989196777 22.40349960327148 13.09017086029053 18.23777389526367 17.7528076171875 14.64495468139648 C 22.4732608795166 11.00759124755859 27.98344421386719 8.147500038146973 34.1302604675293 6.144136905670166 C 40.53135299682617 4.057864189147949 47.33762359619141 3.000045776367188 54.35998916625977 3.000045776367188 L 631.1799926757813 3.000045776367188 C 638.2023315429688 3.000045776367188 645.0086059570313 4.057864189147949 651.4097290039063 6.144136905670166 C 657.556640625 8.147500038146973 663.0668334960938 11.00759124755859 667.7872314453125 14.64495468139648 C 672.4498291015625 18.23777389526367 676.1006469726563 22.40349960327148 678.6382446289063 27.02659225463867 C 681.2272338867188 31.74322700500488 682.5399780273438 36.74313735961914 682.5399780273438 41.88750076293945 L 682.5399780273438 614.3496704101563 C 682.5399780273438 619.4940185546875 681.2272338867188 624.4939575195313 678.6382446289063 629.210693359375 C 676.1006469726563 633.8336791992188 672.4498291015625 637.99951171875 667.7872314453125 641.5923461914063 C 663.0668334960938 645.2296752929688 657.556640625 648.0897827148438 651.4097290039063 650.0931396484375 C 645.0086059570313 652.1793823242188 638.2023315429688 653.2372436523438 631.1799926757813 653.2372436523438 Z" stroke="none"/>
          <path d="M 54.3599853515625 5.99993896484375 C 27.69415283203125 5.99993896484375 6 22.09893798828125 6 41.88739013671875 L 6 614.3496704101563 C 6 634.1381225585938 27.69415283203125 650.2371215820313 54.3599853515625 650.2371215820313 L 631.1799926757813 650.2371215820313 C 657.8458251953125 650.2371215820313 679.5399780273438 634.1381225585938 679.5399780273438 614.3496704101563 L 679.5399780273438 41.88739013671875 C 679.5399780273438 22.09893798828125 657.8458251953125 5.99993896484375 631.1799926757813 5.99993896484375 L 54.3599853515625 5.99993896484375 M 54.3599853515625 -6.103515625e-05 L 631.1799926757813 -6.103515625e-05 C 661.2021484375 -6.103515625e-05 685.5399780273438 18.753662109375 685.5399780273438 41.88739013671875 L 685.5399780273438 614.3496704101563 C 685.5399780273438 637.4833984375 661.2021484375 656.2371215820313 631.1799926757813 656.2371215820313 L 54.3599853515625 656.2371215820313 C 24.33782958984375 656.2371215820313 0 637.4833984375 0 614.3496704101563 L 0 41.88739013671875 C 0 18.753662109375 24.33782958984375 -6.103515625e-05 54.3599853515625 -6.103515625e-05 Z" stroke="none" fill="#adbdf8"/>
        </g>
      </g>
      <rect id="Rectangle_940" data-name="Rectangle 940" width="97" height="79" rx="25" transform="translate(1324 443)" fill="#476aea"/>
      <rect id="Rectangle_939" data-name="Rectangle 939" width="248" height="45" rx="5" transform="translate(1248 483)" fill="#7c96f3"/>
      <circle id="Ellipse_2" data-name="Ellipse 2" cx="12" cy="12" r="12" transform="translate(1360 452)" fill="#fff"/>
    </g>
    <g id="chart-2" data-name="chart" transform="translate(-59.655 -197.981)">
      <g transform="matrix(1, 0, 0, 1, 59.66, 197.98)" filter="url(#Path_287-2)">
        <g id="Path_287-4" data-name="Path 287" transform="translate(968.34 299.38)" fill="#fff">
          <path d="M 631.1799926757813 653.2372436523438 L 54.35998916625977 653.2372436523438 C 47.33762359619141 653.2372436523438 40.53135299682617 652.1793823242188 34.1302604675293 650.0931396484375 C 27.98344421386719 648.0897827148438 22.4732608795166 645.2296752929688 17.7528076171875 641.5923461914063 C 13.09017086029053 637.99951171875 9.439352989196777 633.8336791992188 6.901716232299805 629.210693359375 C 4.312716484069824 624.4940185546875 2.999989032745361 619.494140625 2.999989032745361 614.3497924804688 L 2.999989032745361 41.88750076293945 C 2.999989032745361 36.74313735961914 4.312716484069824 31.74322700500488 6.901716232299805 27.02659225463867 C 9.439352989196777 22.40349960327148 13.09017086029053 18.23777389526367 17.7528076171875 14.64495468139648 C 22.4732608795166 11.00759124755859 27.98344421386719 8.147500038146973 34.1302604675293 6.144136905670166 C 40.53135299682617 4.057864189147949 47.33762359619141 3.000045776367188 54.35998916625977 3.000045776367188 L 631.1799926757813 3.000045776367188 C 638.2023315429688 3.000045776367188 645.0086059570313 4.057864189147949 651.4097290039063 6.144136905670166 C 657.556640625 8.147500038146973 663.0668334960938 11.00759124755859 667.7872314453125 14.64495468139648 C 672.4498291015625 18.23777389526367 676.1006469726563 22.40349960327148 678.6382446289063 27.02659225463867 C 681.2272338867188 31.74322700500488 682.5399780273438 36.74313735961914 682.5399780273438 41.88750076293945 L 682.5399780273438 614.3497924804688 C 682.5399780273438 619.494140625 681.2272338867188 624.4940185546875 678.6382446289063 629.210693359375 C 676.1006469726563 633.8336791992188 672.4498291015625 637.99951171875 667.7872314453125 641.5923461914063 C 663.0668334960938 645.2296752929688 657.556640625 648.0897827148438 651.4097290039063 650.0931396484375 C 645.0086059570313 652.1793823242188 638.2023315429688 653.2372436523438 631.1799926757813 653.2372436523438 Z" stroke="none"/>
          <path d="M 54.3599853515625 5.99993896484375 C 27.69415283203125 5.99993896484375 6 22.09906005859375 6 41.88751220703125 L 6 614.3496704101563 C 6 634.1381225585938 27.69415283203125 650.2371215820313 54.3599853515625 650.2371215820313 L 631.1799926757813 650.2371215820313 C 657.8458251953125 650.2371215820313 679.5399780273438 634.1381225585938 679.5399780273438 614.3496704101563 L 679.5399780273438 41.88751220703125 C 679.5399780273438 22.09906005859375 657.8458251953125 5.99993896484375 631.1799926757813 5.99993896484375 L 54.3599853515625 5.99993896484375 M 54.3599853515625 -6.103515625e-05 L 631.1799926757813 -6.103515625e-05 C 661.2021484375 -6.103515625e-05 685.5399780273438 18.753662109375 685.5399780273438 41.88751220703125 L 685.5399780273438 614.3496704101563 C 685.5399780273438 637.4835205078125 661.2021484375 656.2371215820313 631.1799926757813 656.2371215820313 L 54.3599853515625 656.2371215820313 C 24.33782958984375 656.2371215820313 0 637.4835205078125 0 614.3496704101563 L 0 41.88751220703125 C 0 18.753662109375 24.33782958984375 -6.103515625e-05 54.3599853515625 -6.103515625e-05 Z" stroke="none" fill="#adbdf8"/>
        </g>
      </g>
      <rect id="Rectangle_940-2" data-name="Rectangle 940" width="97" height="70" rx="25" transform="translate(1324 443)" fill="#476aea"/>
      <circle id="Ellipse_2-2" data-name="Ellipse 2" cx="12" cy="12" r="12" transform="translate(1358.77 452)" fill="#fff"/>
    </g>
    <rect id="Rectangle_151" data-name="Rectangle 151" width="605" height="40" rx="4" transform="translate(305.884 404.02)" fill="#adbdf8"/>
    <text id="DATE" transform="translate(387.884 428.02)" fill="#2c57f3" font-size="12" font-family="Arial-BoldMT, Arial" font-weight="700"><tspan x="-15.888" y="0">DATE</tspan></text>
    <text id="VIEWED_ALL" data-name="VIEWED ALL" transform="translate(815.884 428.02)" fill="#2c57f3" font-size="12" font-family="Arial-BoldMT, Arial" font-weight="700"><tspan x="-36.776" y="0">VIEWED ALL</tspan></text>
    <text id="CLINICIAN" transform="translate(509.884 428.02)" fill="#2c57f3" font-size="12" font-family="Arial-BoldMT, Arial" font-weight="700"><tspan x="-30.331" y="0">CLINICIAN</tspan></text>
    <text id="SPECIALITY" transform="translate(675.884 428.02)" fill="#2c57f3" font-size="12" font-family="Arial-BoldMT, Arial" font-weight="700"><tspan x="-35.338" y="0">SPECIALITY</tspan></text>
    <rect id="Rectangle_151-2" data-name="Rectangle 151" width="604" height="40" rx="4" transform="translate(306.884 464.02)" fill="#e7ebfb"/>
    <text id="_04_03_2021" data-name="04/03/2021" transform="translate(392.884 488.02)" fill="#646464" font-size="12" font-family="ArialMT, Arial"><tspan x="-30.029" y="0">04/03/2021</tspan></text>
    <text id="False" transform="translate(809.884 488.02)" fill="#646464" font-size="12" font-family="ArialMT, Arial"><tspan x="-14.672" y="0">False</tspan></text>
    <text id="General_Practioner" data-name="General Practioner" transform="translate(638.884 488.02)" fill="#646464" font-size="12" font-family="ArialMT, Arial"><tspan x="0" y="0">General Practioner</tspan></text>
    <text id="Ezperanza_Gorgonia" data-name="Ezperanza Gorgonia" transform="translate(477.884 488.02)" fill="#646464" font-size="12" font-family="ArialMT, Arial"><tspan x="0" y="0">Ezperanza Gorgonia</tspan></text>
    <path id="Path_290" data-name="Path 290" d="M4,0H601a4,4,0,0,1,4,4V36a4,4,0,0,1-4,4H4a4,4,0,0,1-4-4V4A4,4,0,0,1,4,0Z" transform="translate(306.884 524.02)" fill="#e7ebfb"/>
    <text id="_09_01_2009" data-name="09/01/2009" transform="translate(392.884 548.02)" fill="#646464" font-size="12" font-family="ArialMT, Arial"><tspan x="-30.029" y="0">09/01/2009</tspan></text>
    <text id="False-2" data-name="False" transform="translate(809.884 548.02)" fill="#646464" font-size="12" font-family="ArialMT, Arial"><tspan x="-14.672" y="0">False</tspan></text>
    <text id="General_Practioner-2" data-name="General Practioner" transform="translate(638.884 548.02)" fill="#646464" font-size="12" font-family="ArialMT, Arial"><tspan x="0" y="0">General Practioner</tspan></text>
    <text id="Remedios_Diaz" data-name="Remedios Diaz" transform="translate(477.884 548.02)" fill="#646464" font-size="12" font-family="ArialMT, Arial"><tspan x="0" y="0">Remedios Diaz</tspan></text>
    <rect id="Rectangle_151-3" data-name="Rectangle 151" width="605" height="40" rx="4" transform="translate(306.884 584.02)" fill="#e7ebfb"/>
    <text id="_12_23_2000" data-name="12/23/2000" transform="translate(392.884 608.02)" fill="#646464" font-size="12" font-family="ArialMT, Arial"><tspan x="-30.029" y="0">12/23/2000</tspan></text>
    <text id="False-3" data-name="False" transform="translate(809.884 608.02)" fill="#646464" font-size="12" font-family="ArialMT, Arial"><tspan x="-14.672" y="0">False</tspan></text>
    <text id="General_Doctor" data-name="General Doctor" transform="translate(638.884 608.02)" fill="#646464" font-size="12" font-family="ArialMT, Arial"><tspan x="0" y="0">General Doctor</tspan></text>
    <text id="Martin_Lex" data-name="Martin Lex" transform="translate(477.884 608.02)" fill="#646464" font-size="12" font-family="ArialMT, Arial"><tspan x="0" y="0">Martin Lex</tspan></text>
    <rect id="Rectangle_151-4" data-name="Rectangle 151" width="605" height="40" rx="4" transform="translate(306.884 644.02)" fill="#e7ebfb"/>
    <text id="_04_03_2021-2" data-name="04/03/2021" transform="translate(392.884 668.02)" fill="#646464" font-size="12" font-family="ArialMT, Arial"><tspan x="-30.029" y="0">04/03/2021</tspan></text>
    <text id="False-4" data-name="False" transform="translate(809.884 668.02)" fill="#646464" font-size="12" font-family="ArialMT, Arial"><tspan x="-14.672" y="0">False</tspan></text>
    <text id="General_Practioner-3" data-name="General Practioner" transform="translate(638.884 668.02)" fill="#646464" font-size="12" font-family="ArialMT, Arial"><tspan x="0" y="0">General Practioner</tspan></text>
    <text id="Sandara_Park" data-name="Sandara Park" transform="translate(477.884 668.02)" fill="#646464" font-size="12" font-family="ArialMT, Arial"><tspan x="0" y="0">Sandara Park</tspan></text>
    <rect id="Rectangle_151-5" data-name="Rectangle 151" width="605" height="40" rx="4" transform="translate(306.884 704.02)" fill="#e7ebfb"/>
    <text id="_04_03_2021-3" data-name="04/03/2021" transform="translate(392.884 728.02)" fill="#646464" font-size="12" font-family="ArialMT, Arial"><tspan x="-30.029" y="0">04/03/2021</tspan></text>
    <text id="False-5" data-name="False" transform="translate(809.884 728.02)" fill="#646464" font-size="12" font-family="ArialMT, Arial"><tspan x="-14.672" y="0">False</tspan></text>
    <text id="General_Practioner-4" data-name="General Practioner" transform="translate(638.884 728.02)" fill="#646464" font-size="12" font-family="ArialMT, Arial"><tspan x="0" y="0">General Practioner</tspan></text>
    <text id="Angel_Locsin" data-name="Angel Locsin" transform="translate(477.884 728.02)" fill="#646464" font-size="12" font-family="ArialMT, Arial"><tspan x="0" y="0">Angel Locsin</tspan></text>
    <rect id="Rectangle_151-6" data-name="Rectangle 151" width="605" height="40" rx="4" transform="translate(306.884 764.02)" fill="#e7ebfb"/>
    <rect id="Rectangle_151-7" data-name="Rectangle 151" width="605" height="40" rx="4" transform="translate(306.884 824.02)" fill="#e7ebfb"/>
    <rect id="Rectangle_151-8" data-name="Rectangle 151" width="605" height="40" rx="4" transform="translate(306.884 884.02)" fill="#e7ebfb"/>
    <text id="_04_03_2021-4" data-name="04/03/2021" transform="translate(392.884 788.02)" fill="#646464" font-size="12" font-family="ArialMT, Arial"><tspan x="-30.029" y="0">04/03/2021</tspan></text>
    <text id="True" transform="translate(809.884 788.02)" fill="#646464" font-size="12" font-family="ArialMT, Arial"><tspan x="-12.114" y="0">True</tspan></text>
    <text id="Emergency_Doctor" data-name="Emergency Doctor" transform="translate(638.884 788.02)" fill="#646464" font-size="12" font-family="ArialMT, Arial"><tspan x="0" y="0">Emergency Doctor</tspan></text>
    <text id="Jessy_James" data-name="Jessy James" transform="translate(477.884 788.02)" fill="#646464" font-size="12" font-family="ArialMT, Arial"><tspan x="0" y="0">Jessy James</tspan></text>
    <text id="Viewing_History" data-name="Viewing History" transform="translate(609.884 376.019)" fill="#2c57f3" font-size="36" font-family="Arial-BoldMT, Arial" font-weight="700"><tspan x="-134.701" y="0">Viewing History</tspan></text>
    <g id="update" transform="translate(572.884 94.019)">
      <g id="title" transform="translate(434 330)" style="isolation: isolate">
        <rect id="Rectangle_151-9" data-name="Rectangle 151" width="605" height="40" rx="4" transform="translate(1 -20)" fill="#adbdf8"/>
        <text id="DATE-2" data-name="DATE" transform="translate(70 4)" fill="#2c57f3" font-size="12" font-family="Arial-BoldMT, Arial" font-weight="700"><tspan x="-15.888" y="0">DATE</tspan></text>
        <text id="INFORMATION_CHANGED" data-name="INFORMATION CHANGED" transform="translate(246 4)" fill="#2c57f3" font-size="12" font-family="Arial-BoldMT, Arial" font-weight="700"><tspan x="-73.884" y="0">INFORMATION CHANGED</tspan></text>
      </g>
      <g id="Login" transform="translate(416 390)" style="isolation: isolate">
        <rect id="Rectangle_151-10" data-name="Rectangle 151" width="604" height="40" rx="4" transform="translate(20 -20)" fill="#e7ebfb"/>
        <text id="_02_22_2021" data-name="02/22/2021" transform="translate(90 4)" fill="#646464" font-size="12" font-family="ArialMT, Arial"><tspan x="-30.029" y="0">02/22/2021</tspan></text>
        <text id="Address_Marital_Status_Emergency_Contact_Full_Name" data-name="Address, Marital Status, Emergency Contact, Full Name" transform="translate(190 4)" fill="#646464" font-size="12" font-family="ArialMT, Arial"><tspan x="0" y="0">Address, Marital Status, Emergency Contact, Full Name</tspan></text>
      </g>
      <g id="Login-2" data-name="Login" transform="translate(416 450)" style="isolation: isolate">
        <rect id="Rectangle_151-11" data-name="Rectangle 151" width="604" height="40" rx="4" transform="translate(20 -20)" fill="#e7ebfb"/>
        <text id="_02_01_2021" data-name="02/01/2021" transform="translate(90 4)" fill="#646464" font-size="12" font-family="ArialMT, Arial"><tspan x="-30.029" y="0">02/01/2021</tspan></text>
        <text id="Address" transform="translate(189 4)" fill="#646464" font-size="12" font-family="ArialMT, Arial"><tspan x="0" y="0">Address</tspan></text>
      </g>
      <g id="Login-3" data-name="Login" transform="translate(416 510)" style="isolation: isolate">
        <rect id="Rectangle_151-12" data-name="Rectangle 151" width="604" height="40" rx="4" transform="translate(20 -20)" fill="#e7ebfb"/>
        <text id="_11_13_2020" data-name="11/13/2020" transform="translate(90 4)" fill="#646464" font-size="12" font-family="ArialMT, Arial"><tspan x="-29.584" y="0">11/13/2020</tspan></text>
        <text id="Phone_Number" data-name="Phone Number" transform="translate(189 4)" fill="#646464" font-size="12" font-family="ArialMT, Arial"><tspan x="0" y="0">Phone Number</tspan></text>
      </g>
      <g id="Login-4" data-name="Login" transform="translate(416 570)" style="isolation: isolate">
        <rect id="Rectangle_151-13" data-name="Rectangle 151" width="604" height="40" rx="4" transform="translate(20 -20)" fill="#e7ebfb"/>
      </g>
      <g id="Login-5" data-name="Login" transform="translate(416 630)" style="isolation: isolate">
        <rect id="Rectangle_151-14" data-name="Rectangle 151" width="604" height="40" rx="4" transform="translate(20 -20)" fill="#e7ebfb"/>
      </g>
      <g id="Login-6" data-name="Login" transform="translate(416 690)" style="isolation: isolate">
        <rect id="Rectangle_151-15" data-name="Rectangle 151" width="604" height="40" rx="4" transform="translate(20 -20)" fill="#e7ebfb"/>
      </g>
      <g id="Login-7" data-name="Login" transform="translate(416 750)" style="isolation: isolate">
        <rect id="Rectangle_151-16" data-name="Rectangle 151" width="604" height="40" rx="4" transform="translate(20 -20)" fill="#e7ebfb"/>
      </g>
      <g id="Login-8" data-name="Login" transform="translate(416 810)" style="isolation: isolate">
        <rect id="Rectangle_151-17" data-name="Rectangle 151" width="604" height="40" rx="4" transform="translate(20 -20)" fill="#e7ebfb"/>
      </g>
      <text id="Update_History" data-name="Update History" transform="translate(738 282)" fill="#2c57f3" font-size="36" font-family="Arial-BoldMT, Arial" font-weight="700"><tspan x="-128.021" y="0">Update History</tspan></text>
    </g>
    <rect id="Rectangle_943" data-name="Rectangle 943" width="248" height="45" rx="5" transform="translate(1187.114 285.019)" fill="#7c96f3"/>
    <g id="key" transform="translate(-783.834 -4.326)">
      <ellipse id="Ellipse_1" data-name="Ellipse 1" cx="86.634" cy="37.333" rx="86.634" ry="37.333" transform="translate(869.034 268.046)" fill="#cbd5fb"/>
      <g id="Path_38" data-name="Path 38" transform="translate(859.745 171.945)" fill="url(#radial-gradient)">
        <path d="M96.1,0a96.133,96.133,0,0,1,84.766,141.421C164.653,171.658,132.776,176.35,96.1,176.35c-36.516,0-68.275-4.514-84.584-34.593A96.132,96.132,0,0,1,96.1,0Z" stroke="none"/>
        <path d="M 96.10110473632813 8 C 47.52200317382813 8 8 47.52200317382813 8 96.10110473632813 C 8 110.7469024658203 11.64796447753906 125.2159042358398 18.54954528808594 137.9439392089844 C 32.2784423828125 163.2634735107422 58.40167236328125 168.3499450683594 96.10110473632813 168.3499450683594 C 133.9136962890625 168.3499450683594 160.1037750244141 163.212646484375 173.8162384033203 137.6401062011719 C 180.6108093261719 124.9688720703125 184.2022094726563 110.6049423217773 184.2022094726563 96.10110473632813 C 184.2022094726563 47.52200317382813 144.6802062988281 8 96.10110473632813 8 M 96.10110473632813 0 C 149.17626953125 0 192.2022094726563 43.02593994140625 192.2022094726563 96.10110473632813 C 192.2022094726563 112.5013427734375 188.0940704345703 127.9420776367188 180.8666076660156 141.4206390380859 C 164.6527099609375 171.6581420898438 132.7760314941406 176.3499450683594 96.10110473632813 176.3499450683594 C 59.58537292480469 176.3499450683594 27.82640075683594 171.8361358642578 11.51683044433594 141.7572326660156 C 4.188308715820313 128.2417755126953 0 112.6605682373047 0 96.10110473632813 C 0 43.02593994140625 43.02593994140625 0 96.10110473632813 0 Z" stroke="none" fill="rgba(173,189,248,0.17)"/>
      </g>
      <path id="Path_31" data-name="Path 31" d="M9130.117-2226.651l16.478-9.9,51.451,30.062a9.69,9.69,0,0,1,1.33,1.3c.338.491.627.889.627.889a10.51,10.51,0,0,1,.681,1.152,10.743,10.743,0,0,1,.623,1.668l.072,51.257a2.683,2.683,0,0,1-.18.934,1.479,1.479,0,0,1-.528.588l-13.119,7.728.646-1.53.181-44.153a16.284,16.284,0,0,0-.854-5.4,6.537,6.537,0,0,0-2.749-3.049Z" transform="translate(-8207.721 2466.672)" fill="url(#linear-gradient)"/>
      <path id="Path_30" data-name="Path 30" d="M9128.122-2208.552c10.295,6.218,43.15,25.216,53.744,31.335a5.248,5.248,0,0,1,2.44,3.1,26.267,26.267,0,0,1,.724,3.231v45.99a2.283,2.283,0,0,1-.807,1.7,3.814,3.814,0,0,1-4.176,0l-51.626-30.062a11.375,11.375,0,0,1-2.409-2.928,11.758,11.758,0,0,1-1.11-3.666v-45.516a10.7,10.7,0,0,1,.346-2.077A1.856,1.856,0,0,1,9128.122-2208.552Z" transform="translate(-8204.369 2448.902)" fill="url(#linear-gradient-2)"/>
      <path id="Path_33" data-name="Path 33" d="M9188.637-2125.95c3.424,1.359,5.191,3.473,6.66,7.463s1.3,7.406-1.1,8.047-4.865-.276-7.34-3.183-3.371-4.675-3.006-7.869S9185.207-2127.31,9188.637-2125.95Z" transform="translate(-8242.206 2395.822)" fill="#526dcf"/>
      <path id="Path_34" data-name="Path 34" d="M9189.455-2091.026l-2.53,9.726,8.967,5.455-1.42-11.731a10.154,10.154,0,0,0-2.262-1.58A17.143,17.143,0,0,1,9189.455-2091.026Z" transform="translate(-8244.232 2373.139)" fill="url(#linear-gradient-3)"/>
      <path id="Path_37" data-name="Path 37" d="M9169.2-2258.223c.92-.058,5.748-3.334,5.748-3.334s-.82-13.837.286-21.093,4.139-7.931,4.139-7.931a13.585,13.585,0,0,0-9.081,6.9c-2.86,5.791-2.3,9.785-2.356,16.265S9169.2-2258.223,9169.2-2258.223Z" transform="translate(-8232.022 2501.403)" fill="#0e2d9d"/>
      <path id="Path_36" data-name="Path 36" d="M9173.418-2310.5l9.313-4.9a32.248,32.248,0,0,1,11.657,2.541c6.238,2.615,13.373,11.207,13.373,11.207a47.84,47.84,0,0,1,9.713,19.576c.98,4.15,1.344,5.6,1.344,5.6v22.565s-5.9,3.661-5.828,3.437-4.706-35.191-4.706-35.191-15.915-19.128-16.137-19.278S9173.418-2310.5,9173.418-2310.5Z" transform="translate(-8235.551 2517.355)" fill="#96abf5"/>
      <path id="Path_35" data-name="Path 35" d="M9160.075-2267.511c-.225-.074-6.054-3.511-6.054-3.511s.109-2.215,0-6.575c-.245-9.611.278-25.579,9.341-26.823,2.925-.4,7.343-.7,11.506,1.344a40.2,40.2,0,0,1,11.73,8.667,50.621,50.621,0,0,1,8.664,11.254c1.172,2.147,3.365,8.022,3.365,8.022s1.7,3.866,2.167,11.432,0,19.875,0,19.875l-5.9-3.213s.6-18.305-.746-24.656c-3.623-11.077-6.106-12.869-8-15.541-5.161-7.3-11.927-10.387-16.513-10.311a8.931,8.931,0,0,0-5.847,2.5C9158.333-2291.311,9160.075-2267.511,9160.075-2267.511Z" transform="translate(-8223.056 2510.485)" fill="#526dcf"/>
      <path id="Subtraction_1" data-name="Subtraction 1" d="M9.177,164.167c-2.71,0-5.9,0-9-.035,29.521-.288,57.212-2.765,71.582-29.582A91.594,91.594,0,0,0,82.541,91.433,90.992,90.992,0,0,0,0,.42C2.919.141,5.886,0,8.818,0a90.712,90.712,0,0,1,35.56,7.185A91.281,91.281,0,0,1,59.9,15.616,92.06,92.06,0,0,1,73.421,26.78,92.169,92.169,0,0,1,84.577,40.313,91.342,91.342,0,0,1,93,55.843a90.925,90.925,0,0,1,7.18,35.59,91.892,91.892,0,0,1-2.812,22.6A90.9,90.9,0,0,1,89.4,134.551a49.589,49.589,0,0,1-14.138,16.763,55.105,55.105,0,0,1-18.683,8.832,111.807,111.807,0,0,1-22.329,3.438C26.181,164.122,17.44,164.167,9.177,164.167Z" transform="translate(948.345 174.446)" fill="rgba(254,254,254,0.22)"/>
    </g>
  </g>
</svg>
