<svg xmlns="http://www.w3.org/2000/svg" xmlns:xlink="http://www.w3.org/1999/xlink" width="1920" height="1080" viewBox="0 0 1920 1080">
  <defs>
    <linearGradient id="linear-gradient" x1="0.5" x2="0.5" y2="1" gradientUnits="objectBoundingBox">
      <stop offset="0" stop-color="#476aea"/>
      <stop offset="1" stop-color="#000827"/>
    </linearGradient>
    <radialGradient id="radial-gradient" cx="0.5" cy="0.5" r="0.5" gradientUnits="objectBoundingBox">
      <stop offset="0" stop-color="#adbdf8" stop-opacity="0"/>
      <stop offset="1" stop-color="#dce4fe" stop-opacity="0.388"/>
    </radialGradient>
    <clipPath id="clip-overview">
      <rect width="1920" height="1080"/>
    </clipPath>
  </defs>
  <g id="overview" clip-path="url(#clip-overview)">
    <rect id="background" width="1920" height="1080" fill="#adbdf8"/>
    <path id="desc" d="M40.838,0H1539.582c22.554,0,40.838,13.47,40.838,30.087V749.913c0,16.616-18.284,30.087-40.838,30.087H40.838C18.284,780,0,766.53,0,749.913V30.087C0,13.47,18.284,0,40.838,0Z" transform="translate(169.79 200)" fill="#fff"/>
    <text id="OVERVIEW-2" data-name="OVERVIEW" transform="translate(960 250)" fill="#2c57f3" font-size="36" font-family="Arial-BoldMT, Arial" font-weight="700"><tspan x="-96.688" y="0">OVERVIEW</tspan></text>
    <g id="_2_DIAGNOSIS" data-name="2 DIAGNOSIS" transform="translate(-152.199 78)">
      <g id="file1" transform="translate(350 -29)">
        <rect id="Rectangle_151" data-name="Rectangle 151" width="380" height="22" rx="4" transform="translate(572 304)" fill="#e7ebfb"/>
        <text id="Hypertension" transform="translate(577 319)" fill="#476aea" font-size="11" font-family="ArialMT, Arial"><tspan x="0" y="0">Hypertension</tspan></text>
        <text id="_10_1971" data-name="10/1971" transform="translate(772 319)" fill="#476aea" font-size="11" font-family="ArialMT, Arial"><tspan x="0" y="0">10/1971</tspan></text>
        <text id="Resolved" transform="translate(886 319)" fill="#476aea" font-size="11" font-family="ArialMT, Arial"><tspan x="0" y="0">Resolved</tspan></text>
        <rect id="Rectangle_151-2" data-name="Rectangle 151" width="380" height="22" rx="4" transform="translate(572 272)" fill="#e7ebfb"/>
        <text id="Pneumonia" transform="translate(577 287)" fill="#476aea" font-size="11" font-family="ArialMT, Arial"><tspan x="0" y="0">Pneumonia</tspan></text>
        <text id="_01_1996" data-name="01/1996" transform="translate(772 287)" fill="#476aea" font-size="11" font-family="ArialMT, Arial"><tspan x="0" y="0">01/1996</tspan></text>
        <text id="Resolved-2" data-name="Resolved" transform="translate(886 287)" fill="#476aea" font-size="11" font-family="ArialMT, Arial"><tspan x="0" y="0">Resolved</tspan></text>
        <text id="Status" transform="translate(889 260)" fill="#476aea" font-size="11" font-family="ArialMT, Arial"><tspan x="0" y="0">Status</tspan></text>
        <text id="Date" transform="translate(779 260)" fill="#476aea" font-size="11" font-family="ArialMT, Arial"><tspan x="0" y="0">Date</tspan></text>
        <text id="Medical_Condition" data-name="Medical Condition" transform="translate(579 260)" fill="#476aea" font-size="11" font-family="ArialMT, Arial"><tspan x="0" y="0">Medical Condition</tspan></text>
      </g>
    </g>
    <g id="_3_IMMUNIZATION" data-name="3 IMMUNIZATION" transform="translate(-152.199 78)">
      <g id="file1-2" data-name="file1" transform="translate(852 -29)">
        <rect id="Rectangle_151-3" data-name="Rectangle 151" width="380" height="22" rx="4" transform="translate(572.2 432)" fill="#e7ebfb"/>
        <text id="Mumps" transform="translate(577.2 447)" fill="#476aea" font-size="11" font-family="ArialMT, Arial"><tspan x="0" y="0">Mumps</tspan></text>
        <text id="_10_1971-2" data-name="10/1971" transform="translate(772.2 447)" fill="#476aea" font-size="11" font-family="ArialMT, Arial"><tspan x="0" y="0">10/1971</tspan></text>
        <path id="Path_294" data-name="Path 294" d="M4,0H376a4,4,0,0,1,4,4V18a4,4,0,0,1-4,4H4a4,4,0,0,1-4-4V4A4,4,0,0,1,4,0Z" transform="translate(572.2 400)" fill="#e7ebfb"/>
        <text id="Measles" transform="translate(577.2 415)" fill="#476aea" font-size="11" font-family="ArialMT, Arial"><tspan x="0" y="0">Measles</tspan></text>
        <text id="_11_1976" data-name="11/1976" transform="translate(772.2 415)" fill="#476aea" font-size="11" font-family="ArialMT, Arial"><tspan x="0" y="0">11/1976</tspan></text>
        <path id="Path_293" data-name="Path 293" d="M4,0H376a4,4,0,0,1,4,4V18a4,4,0,0,1-4,4H4a4,4,0,0,1-4-4V4A4,4,0,0,1,4,0Z" transform="translate(572.2 368)" fill="#e7ebfb"/>
        <text id="Polio" transform="translate(577.2 383)" fill="#476aea" font-size="11" font-family="ArialMT, Arial"><tspan x="0" y="0">Polio</tspan></text>
        <text id="_01_1996-2" data-name="01/1996" transform="translate(772.2 383)" fill="#476aea" font-size="11" font-family="ArialMT, Arial"><tspan x="0" y="0">01/1996</tspan></text>
        <path id="Path_292" data-name="Path 292" d="M4,0H376a4,4,0,0,1,4,4V18a4,4,0,0,1-4,4H4a4,4,0,0,1-4-4V4A4,4,0,0,1,4,0Z" transform="translate(572.2 336)" fill="#e7ebfb"/>
        <text id="Hepatitis_B" data-name="Hepatitis B" transform="translate(577.2 351)" fill="#476aea" font-size="11" font-family="ArialMT, Arial"><tspan x="0" y="0">Hepatitis B</tspan></text>
        <text id="_08_1997" data-name="08/1997" transform="translate(772.2 351)" fill="#476aea" font-size="11" font-family="ArialMT, Arial"><tspan x="0" y="0">08/1997</tspan></text>
        <rect id="Rectangle_151-4" data-name="Rectangle 151" width="380" height="22" rx="4" transform="translate(572.2 304)" fill="#e7ebfb"/>
        <text id="Diphleria" transform="translate(577.2 319)" fill="#476aea" font-size="11" font-family="ArialMT, Arial"><tspan x="0" y="0">Diphleria</tspan></text>
        <text id="_07_2001" data-name="07/2001" transform="translate(772.2 319)" fill="#476aea" font-size="11" font-family="ArialMT, Arial"><tspan x="0" y="0">07/2001</tspan></text>
        <rect id="Rectangle_151-5" data-name="Rectangle 151" width="380" height="22" rx="4" transform="translate(572.2 272)" fill="#e7ebfb"/>
        <text id="Rubella" transform="translate(577.2 287)" fill="#476aea" font-size="11" font-family="ArialMT, Arial"><tspan x="0" y="0">Rubella</tspan></text>
        <text id="_09_2004" data-name="09/2004" transform="translate(772.2 287)" fill="#476aea" font-size="11" font-family="ArialMT, Arial"><tspan x="0" y="0">09/2004</tspan></text>
        <g id="details" transform="translate(5.8 -556)">
          <text id="Recent_Date" data-name="Recent Date" transform="translate(757.2 818)" fill="#476aea" font-size="11" font-family="ArialMT, Arial"><tspan x="0" y="0">Recent Date</tspan></text>
        </g>
        <g id="details-2" data-name="details" transform="translate(-185.2 -558)">
          <text id="Type" transform="translate(757.2 818)" fill="#476aea" font-size="11" font-family="ArialMT, Arial"><tspan x="0" y="0">Type</tspan></text>
        </g>
      </g>
    </g>
    <path id="Path_370" data-name="Path 370" d="M0,0V201" transform="translate(662.801 736)" fill="#476aea" stroke="#000" stroke-width="2" opacity="0.1"/>
    <g id="_1_PATIENT_DETAILS" data-name="1 PATIENT DETAILS" transform="translate(-152.199 78)">
      <rect id="Rectangle_151-6" data-name="Rectangle 151" width="160.875" height="22" rx="4" transform="translate(420.2 243)" fill="#e7ebfb"/>
      <text id="Jane_Williams" data-name="Jane Williams" transform="translate(425.2 258)" fill="#476aea" font-size="11" font-family="ArialMT, Arial"><tspan x="0" y="0">Jane Williams</tspan></text>
      <text id="Fullname" transform="translate(425 241)" fill="#476aea" font-size="11" font-family="ArialMT, Arial"><tspan x="0" y="0">Fullname</tspan></text>
      <rect id="Rectangle_151-7" data-name="Rectangle 151" width="160.875" height="22" rx="4" transform="translate(420.2 287)" fill="#e7ebfb"/>
      <text id="Female" transform="translate(425.2 302)" fill="#476aea" font-size="11" font-family="ArialMT, Arial"><tspan x="0" y="0">Female</tspan></text>
      <text id="Sex" transform="translate(425 285)" fill="#476aea" font-size="11" font-family="ArialMT, Arial"><tspan x="0" y="0">Sex</tspan></text>
      <rect id="Rectangle_151-8" data-name="Rectangle 151" width="160.875" height="22" rx="4" transform="translate(420.2 331)" fill="#e7ebfb"/>
      <text id="_01_01_1960" data-name="01/01/1960" transform="translate(425.2 346)" fill="#476aea" font-size="11" font-family="ArialMT, Arial"><tspan x="0" y="0">01/01/1960</tspan></text>
      <text id="Date_of_Birth" data-name="Date of Birth" transform="translate(425 329)" fill="#476aea" font-size="11" font-family="ArialMT, Arial"><tspan x="0" y="0">Date of Birth</tspan></text>
      <rect id="Rectangle_151-9" data-name="Rectangle 151" width="160.875" height="22" rx="4" transform="translate(420.2 375)" fill="#e7ebfb"/>
      <text id="_905_455_3116" data-name="905 455 3116" transform="translate(425.2 390)" fill="#476aea" font-size="11" font-family="ArialMT, Arial"><tspan x="0" y="0">905 455 3116</tspan></text>
      <text id="Phone" transform="translate(425 373)" fill="#476aea" font-size="11" font-family="ArialMT, Arial"><tspan x="0" y="0">Phone</tspan></text>
      <rect id="Rectangle_151-10" data-name="Rectangle 151" width="160.875" height="22" rx="4" transform="translate(420.2 419)" fill="#e7ebfb"/>
      <text id="jane.williams2004_gmail.com" data-name="jane.williams2004@gmail.com" transform="translate(425.2 434)" fill="#476aea" font-size="11" font-family="ArialMT, Arial"><tspan x="0" y="0">jane.williams2004@gmail.com</tspan></text>
      <text id="Email_Address" data-name="Email Address" transform="translate(425 417)" fill="#476aea" font-size="11" font-family="ArialMT, Arial"><tspan x="0" y="0">Email Address</tspan></text>
      <rect id="Rectangle_151-11" data-name="Rectangle 151" width="160.875" height="22" rx="4" transform="translate(420.2 460)" fill="#e7ebfb"/>
      <text id="_12_Heaven_St._ON_1N1_2R2_" data-name="12 Heaven St. ON 1N1 2R2 " transform="translate(425.2 475)" fill="#476aea" font-size="11" font-family="ArialMT, Arial"><tspan x="0" y="0">12 Heaven St. ON 1N1 2R2 </tspan></text>
      <text id="Home_Address" data-name="Home Address" transform="translate(425 458)" fill="#476aea" font-size="11" font-family="ArialMT, Arial"><tspan x="0" y="0">Home Address</tspan></text>
      <path id="Path_291" data-name="Path 291" d="M4,0H156.875a4,4,0,0,1,4,4V18a4,4,0,0,1-4,4H4a4,4,0,0,1-4-4V4A4,4,0,0,1,4,0Z" transform="translate(646.2 243)" fill="#e7ebfb"/>
      <text id="Sunlife" transform="translate(651.2 258)" fill="#476aea" font-size="11" font-family="ArialMT, Arial"><tspan x="0" y="0">Sunlife</tspan></text>
      <text id="Insurance_Provider:" data-name="Insurance Provider:" transform="translate(651 241)" fill="#476aea" font-size="11" font-family="ArialMT, Arial"><tspan x="0" y="0">Insurance Provider:</tspan></text>
      <rect id="Rectangle_151-12" data-name="Rectangle 151" width="160.875" height="22" rx="4" transform="translate(646.2 287)" fill="#e7ebfb"/>
      <text id="_356M59557" data-name="356M59557" transform="translate(651.2 302)" fill="#476aea" font-size="11" font-family="ArialMT, Arial"><tspan x="0" y="0">356M59557</tspan></text>
      <text id="Insurance_Policy_Number:" data-name="Insurance Policy Number:" transform="translate(651 285)" fill="#476aea" font-size="11" font-family="ArialMT, Arial"><tspan x="0" y="0">Insurance Policy Number:</tspan></text>
      <rect id="Rectangle_151-13" data-name="Rectangle 151" width="160.875" height="22" rx="4" transform="translate(646.2 331)" fill="#e7ebfb"/>
      <text id="Dr._Marie_Rose" data-name="Dr. Marie Rose" transform="translate(651.2 346)" fill="#476aea" font-size="11" font-family="ArialMT, Arial"><tspan x="0" y="0">Dr. Marie Rose</tspan></text>
      <text id="Family_Doctor_Name:" data-name="Family Doctor Name:" transform="translate(651 329)" fill="#476aea" font-size="11" font-family="ArialMT, Arial"><tspan x="0" y="0">Family Doctor Name:</tspan></text>
      <rect id="Rectangle_151-14" data-name="Rectangle 151" width="160.875" height="22" rx="4" transform="translate(646.2 375)" fill="#e7ebfb"/>
      <text id="_416_222_3333" data-name="416 222 3333" transform="translate(651.2 390)" fill="#476aea" font-size="11" font-family="ArialMT, Arial"><tspan x="0" y="0">416 222 3333</tspan></text>
      <text id="Family_Doctor_Contact" data-name="Family Doctor Contact" transform="translate(651 373)" fill="#476aea" font-size="11" font-family="ArialMT, Arial"><tspan x="0" y="0">Family Doctor Contact</tspan></text>
      <rect id="Rectangle_151-15" data-name="Rectangle 151" width="160.875" height="22" rx="4" transform="translate(646.2 419)" fill="#e7ebfb"/>
      <text id="Jake_Williams" data-name="Jake  Williams" transform="translate(651.2 434)" fill="#476aea" font-size="11" font-family="ArialMT, Arial"><tspan x="0" y="0" xml:space="preserve">Jake  Williams</tspan></text>
      <text id="Emergency_Contact_Name" data-name="Emergency Contact Name" transform="translate(651 417)" fill="#476aea" font-size="11" font-family="ArialMT, Arial"><tspan x="0" y="0">Emergency Contact Name</tspan></text>
      <rect id="Rectangle_151-16" data-name="Rectangle 151" width="160.875" height="22" rx="4" transform="translate(646.2 460)" fill="#e7ebfb"/>
      <text id="_416_444_5555" data-name="416 444 5555" transform="translate(651.2 475)" fill="#476aea" font-size="11" font-family="ArialMT, Arial"><tspan x="0" y="0">416 444 5555</tspan></text>
      <text id="Emergency_Contact_Phone_Number" data-name="Emergency Contact Phone Number" transform="translate(651 458)" fill="#476aea" font-size="11" font-family="ArialMT, Arial"><tspan x="0" y="0">Emergency Contact Phone Number</tspan></text>
    </g>
    <g id="_4_MEDICATION" data-name="4 MEDICATION" transform="translate(-152.199 33)">
      <g id="file1-3" data-name="file1" transform="translate(-152 386)">
        <rect id="Rectangle_151-17" data-name="Rectangle 151" width="380" height="22" rx="4" transform="translate(572.2 432)" fill="#e7ebfb"/>
        <text id="Losartan_100mg" data-name="Losartan 100mg" transform="translate(577.2 447)" fill="#476aea" font-size="11" font-family="ArialMT, Arial"><tspan x="0" y="0">Losartan 100mg</tspan></text>
        <text id="_10_1971-3" data-name="10/1971" transform="translate(772.2 447)" fill="#476aea" font-size="11" font-family="ArialMT, Arial"><tspan x="0" y="0">10/1971</tspan></text>
        <text id="Discontinued" transform="translate(876.2 447)" fill="#476aea" font-size="11" font-family="ArialMT, Arial"><tspan x="0" y="0">Discontinued</tspan></text>
        <rect id="Rectangle_151-18" data-name="Rectangle 151" width="380" height="22" rx="4" transform="translate(572.2 400)" fill="#e7ebfb"/>
        <text id="Simvastatin_25mg" data-name="Simvastatin 25mg" transform="translate(577.2 415)" fill="#476aea" font-size="11" font-family="ArialMT, Arial"><tspan x="0" y="0">Simvastatin 25mg</tspan></text>
        <text id="_11_1976-2" data-name="11/1976" transform="translate(772.2 415)" fill="#476aea" font-size="11" font-family="ArialMT, Arial"><tspan x="0" y="0">11/1976</tspan></text>
        <text id="Discontinued-2" data-name="Discontinued" transform="translate(876.2 415)" fill="#476aea" font-size="11" font-family="ArialMT, Arial"><tspan x="0" y="0">Discontinued</tspan></text>
        <rect id="Rectangle_151-19" data-name="Rectangle 151" width="380" height="22" rx="4" transform="translate(572.2 368)" fill="#e7ebfb"/>
        <text id="Omeprazole_5mg" data-name="Omeprazole 5mg" transform="translate(577.2 383)" fill="#476aea" font-size="11" font-family="ArialMT, Arial"><tspan x="0" y="0">Omeprazole 5mg</tspan></text>
        <text id="_01_1996-3" data-name="01/1996" transform="translate(772.2 383)" fill="#476aea" font-size="11" font-family="ArialMT, Arial"><tspan x="0" y="0">01/1996</tspan></text>
        <text id="Ongoing" transform="translate(876 383)" fill="#476aea" font-size="11" font-family="ArialMT, Arial"><tspan x="0" y="0">Ongoing</tspan></text>
        <rect id="Rectangle_151-20" data-name="Rectangle 151" width="380" height="22" rx="4" transform="translate(572.2 336)" fill="#e7ebfb"/>
        <text id="Metaprolol_50mg" data-name="Metaprolol 50mg" transform="translate(577.2 351)" fill="#476aea" font-size="11" font-family="ArialMT, Arial"><tspan x="0" y="0">Metaprolol 50mg</tspan></text>
        <text id="_08_1997-2" data-name="08/1997" transform="translate(772.2 351)" fill="#476aea" font-size="11" font-family="ArialMT, Arial"><tspan x="0" y="0">08/1997</tspan></text>
        <text id="Ongoing-2" data-name="Ongoing" transform="translate(876 351)" fill="#476aea" font-size="11" font-family="ArialMT, Arial"><tspan x="0" y="0">Ongoing</tspan></text>
        <rect id="Rectangle_151-21" data-name="Rectangle 151" width="380" height="22" rx="4" transform="translate(572.2 304)" fill="#e7ebfb"/>
        <text id="Amlodipine_250mg" data-name="Amlodipine 250mg" transform="translate(577.2 319)" fill="#476aea" font-size="11" font-family="ArialMT, Arial"><tspan x="0" y="0">Amlodipine 250mg</tspan></text>
        <text id="_07_2001-2" data-name="07/2001" transform="translate(772.2 319)" fill="#476aea" font-size="11" font-family="ArialMT, Arial"><tspan x="0" y="0">07/2001</tspan></text>
        <text id="Ongoing-3" data-name="Ongoing" transform="translate(876 319)" fill="#476aea" font-size="11" font-family="ArialMT, Arial"><tspan x="0" y="0">Ongoing</tspan></text>
        <rect id="Rectangle_151-22" data-name="Rectangle 151" width="380" height="22" rx="4" transform="translate(572.2 272)" fill="#e7ebfb"/>
        <text id="Metformin_25mg" data-name="Metformin 25mg" transform="translate(577.2 287)" fill="#476aea" font-size="11" font-family="ArialMT, Arial"><tspan x="0" y="0">Metformin 25mg</tspan></text>
        <text id="_09_2004-2" data-name="09/2004" transform="translate(772.2 287)" fill="#476aea" font-size="11" font-family="ArialMT, Arial"><tspan x="0" y="0">09/2004</tspan></text>
        <text id="Ongoing-4" data-name="Ongoing" transform="translate(876 287)" fill="#476aea" font-size="11" font-family="ArialMT, Arial"><tspan x="0" y="0">Ongoing</tspan></text>
        <g id="details-3" data-name="details" transform="translate(5.8 -556)">
          <text id="Status-2" data-name="Status" transform="translate(883.2 816)" fill="#476aea" font-size="11" font-family="ArialMT, Arial"><tspan x="0" y="0">Status</tspan></text>
          <text id="Date-2" data-name="Date" transform="translate(773.2 816)" fill="#476aea" font-size="11" font-family="ArialMT, Arial"><tspan x="0" y="0">Date</tspan></text>
          <text id="Medications" transform="translate(572.2 816)" fill="#476aea" font-size="11" font-family="ArialMT, Arial"><tspan x="0" y="0">Medications</tspan></text>
        </g>
        <rect id="Rectangle_151-23" data-name="Rectangle 151" width="380" height="22" rx="4" transform="translate(572.2 496)" fill="#e7ebfb"/>
        <text id="Lipitor_500mg" data-name="Lipitor 500mg" transform="translate(577.2 511)" fill="#476aea" font-size="11" font-family="ArialMT, Arial"><tspan x="0" y="0">Lipitor 500mg</tspan></text>
        <text id="_10_1971-4" data-name="10/1971" transform="translate(772.2 511)" fill="#476aea" font-size="11" font-family="ArialMT, Arial"><tspan x="0" y="0">10/1971</tspan></text>
        <text id="Discontinued-3" data-name="Discontinued" transform="translate(876.2 511)" fill="#476aea" font-size="11" font-family="ArialMT, Arial"><tspan x="0" y="0">Discontinued</tspan></text>
        <rect id="Rectangle_151-24" data-name="Rectangle 151" width="380" height="22" rx="4" transform="translate(572.2 464)" fill="#e7ebfb"/>
        <text id="Neurontin_50mg" data-name="Neurontin 50mg" transform="translate(577.2 479)" fill="#476aea" font-size="11" font-family="ArialMT, Arial"><tspan x="0" y="0">Neurontin 50mg</tspan></text>
        <text id="_10_1971-5" data-name="10/1971" transform="translate(772.2 479)" fill="#476aea" font-size="11" font-family="ArialMT, Arial"><tspan x="0" y="0">10/1971</tspan></text>
        <text id="Ongoing-5" data-name="Ongoing" transform="translate(876 479)" fill="#476aea" font-size="11" font-family="ArialMT, Arial"><tspan x="0" y="0">Ongoing</tspan></text>
      </g>
      <path id="Path_337" data-name="Path 337" transform="translate(843 657.5)" fill="#476aea" stroke="#000" stroke-width="2" opacity="0.1"/>
      <path id="Path_338" data-name="Path 338" d="M3,0A3,3,0,0,1,6,3V49a3,3,0,0,1-6,0V3A3,3,0,0,1,3,0Z" transform="translate(812 660)" fill="#bbb"/>
      <g id="Icon_ionic-ios-menu" data-name="Icon ionic-ios-menu" transform="translate(836.5 672.831)">
        <path id="Path_339" data-name="Path 339" d="M8.51,10.474H4.674A.175.175,0,0,1,4.5,10.3h0a.175.175,0,0,1,.174-.174H8.51a.175.175,0,0,1,.174.174h0A.175.175,0,0,1,8.51,10.474Z" transform="translate(-28)" fill="#8f8f8f"/>
        <path id="Path_340" data-name="Path 340" d="M8.51,17.224H4.674a.175.175,0,0,1-.174-.174h0a.175.175,0,0,1,.174-.174H8.51a.175.175,0,0,1,.174.174h0A.175.175,0,0,1,8.51,17.224Z" transform="translate(-28 -4.965)" fill="#8f8f8f"/>
        <path id="Path_341" data-name="Path 341" d="M8.51,23.974H4.674A.175.175,0,0,1,4.5,23.8h0a.175.175,0,0,1,.174-.174H8.51a.175.175,0,0,1,.174.174h0A.175.175,0,0,1,8.51,23.974Z" transform="translate(-28 -9.93)" fill="#8f8f8f"/>
      </g>
    </g>
    <g id="_5_ENCOUNTER_HISTORY" data-name="5 ENCOUNTER HISTORY" transform="translate(-152.399 33)">
      <g id="file1-4" data-name="file1" transform="translate(350 386)">
        <rect id="Rectangle_151-25" data-name="Rectangle 151" width="380" height="22" rx="4" transform="translate(572.2 272)" fill="#e7ebfb"/>
        <text id="Emergency_Clinic" data-name="Emergency Clinic" transform="translate(577.2 287)" fill="#476aea" font-size="11" font-family="ArialMT, Arial"><tspan x="0" y="0">Emergency Clinic</tspan></text>
        <text id="_10_1971-6" data-name="10/1971" transform="translate(772.2 287)" fill="#476aea" font-size="11" font-family="ArialMT, Arial"><tspan x="0" y="0">10/1971</tspan></text>
        <text id="Car_accident" data-name="Car accident" transform="translate(876.2 287)" fill="#476aea" font-size="11" font-family="ArialMT, Arial"><tspan x="0" y="0">Car accident</tspan></text>
        <rect id="Rectangle_151-26" data-name="Rectangle 151" width="380" height="22" rx="4" transform="translate(572.2 304)" fill="#e7ebfb"/>
        <text id="Walk-in_Clinic" data-name="Walk-in Clinic" transform="translate(577.2 319)" fill="#476aea" font-size="11" font-family="ArialMT, Arial"><tspan x="0" y="0">Walk-in Clinic</tspan></text>
        <text id="_11_1970" data-name="11/1970" transform="translate(772.2 319)" fill="#476aea" font-size="11" font-family="ArialMT, Arial"><tspan x="0" y="0">11/1970</tspan></text>
        <text id="Checkup" transform="translate(876.2 319)" fill="#476aea" font-size="11" font-family="ArialMT, Arial"><tspan x="0" y="0">Checkup</tspan></text>
        <rect id="Rectangle_151-27" data-name="Rectangle 151" width="380" height="22" rx="4" transform="translate(572.2 336)" fill="#e7ebfb"/>
        <text id="Walk-in_Clinic-2" data-name="Walk-in Clinic" transform="translate(577.2 351)" fill="#476aea" font-size="11" font-family="ArialMT, Arial"><tspan x="0" y="0">Walk-in Clinic</tspan></text>
        <text id="_01_1968" data-name="01/1968" transform="translate(772.2 351)" fill="#476aea" font-size="11" font-family="ArialMT, Arial"><tspan x="0" y="0">01/1968</tspan></text>
        <text id="Checkup-2" data-name="Checkup" transform="translate(876.2 351)" fill="#476aea" font-size="11" font-family="ArialMT, Arial"><tspan x="0" y="0">Checkup</tspan></text>
        <text id="Reason" transform="translate(889 260)" fill="#476aea" font-size="11" font-family="ArialMT, Arial"><tspan x="0" y="0">Reason</tspan></text>
        <text id="Date-3" data-name="Date" transform="translate(779 260)" fill="#476aea" font-size="11" font-family="ArialMT, Arial"><tspan x="0" y="0">Date</tspan></text>
        <text id="Facility" transform="translate(573 260)" fill="#476aea" font-size="11" font-family="ArialMT, Arial"><tspan x="0" y="0">Facility</tspan></text>
      </g>
      <path id="Path_370-2" data-name="Path 370" transform="translate(1345 657.5)" fill="#476aea" stroke="#000" stroke-width="2" opacity="0.1"/>
    </g>
    <g id="logo" transform="translate(-108.034 47.69)">
      <g id="logo-2" data-name="logo" transform="translate(181.944 120.408)">
        <g id="logo_consentForm" transform="translate(0 0)">
          <g id="heart_beating" transform="translate(0 0)">
            <ellipse id="Ellipse_1" data-name="Ellipse 1" cx="65.727" cy="13.113" rx="65.727" ry="13.113" transform="translate(32.926 146.865)" fill="#cbd5fb"/>
            <path id="Path_271" data-name="Path 271" d="M4742.6,2637.485a35.1,35.1,0,0,0-19.9-11.368c-7.271-1.217-18.694,1.31-25.235,6.352-13.725,10.468-12.49,31.06-12.49,31.06s.567,10.943,9.092,25.088,12.865,19.657,25.009,31.493,23.568,15.856,23.568,15.856a209.056,209.056,0,0,0,22.805-15.856,112.109,112.109,0,0,0,17.553-18.781s8.149-11.538,11.352-19.692,3.986-21.715,3.986-21.715l-55.746,54.712-33.055-31.94s-5.894-6.168.686-12.885,12.474-1.235,12.474-1.235l19.9,20.7,50.292-49.425s-.721-1.083-1.1-1.6a29.843,29.843,0,0,0-24.815-12.132C4751.775,2626.173,4742.6,2637.485,4742.6,2637.485Z" transform="translate(-4646.307 -2575.988)" fill="url(#linear-gradient)"/>
            <path id="Path_274" data-name="Path 274" d="M841.057,144.9l73.857-73.532L916.7,69.59s2.97-4.028-.761-7.273-7.359.468-7.359.468l-1.922,1.869-65.6,63.778-21.347-22.22a5.386,5.386,0,0,0-8.007,0,6.2,6.2,0,0,0-.723,8.471Z" transform="translate(-744.76 -11.161)" fill="#c5d0fa"/>
            <g id="Path_38" data-name="Path 38" transform="translate(0 0)" fill="url(#radial-gradient)">
              <path d="M97.545,0a97.577,97.577,0,0,1,86.039,143.545c-16.458,30.692-48.429,31.6-85.654,31.6-37.064,0-69.685-.725-86.24-31.256A97.577,97.577,0,0,1,97.545,0Z" stroke="none"/>
              <path d="M 97.54500579833984 5 C 91.26268005371094 5 84.98577117919922 5.632614135742188 78.88865661621094 6.880264282226563 C 72.94906616210938 8.095672607421875 67.10668182373047 9.90924072265625 61.52386474609375 12.27058410644531 C 56.04124450683594 14.58952331542969 50.75291442871094 17.46000671386719 45.80570983886719 20.80226135253906 C 40.90420532226563 24.1136474609375 36.29489135742188 27.91670227050781 32.10580444335938 32.10578918457031 C 27.91671752929688 36.29487609863281 24.1136474609375 40.90420532226563 20.80227661132813 45.80570983886719 C 17.46000671386719 50.75291442871094 14.58953857421875 56.04123687744141 12.27059936523438 61.52385711669922 C 9.90924072265625 67.10667419433594 8.095687866210938 72.94905853271484 6.880264282226563 78.88864898681641 C 5.63262939453125 84.98576354980469 5 91.26268005371094 5 97.54499816894531 C 5 105.3649444580078 5.975265502929688 113.1327362060547 7.898712158203125 120.6325836181641 C 9.762924194335938 127.9014739990234 12.51727294921875 134.9235229492188 16.08529663085938 141.5037994384766 C 17.93270874023438 144.9109191894531 20.05970764160156 148.0122985839844 22.40721130371094 150.7217712402344 C 24.640380859375 153.2993469238281 27.15718078613281 155.6184997558594 29.88764953613281 157.6148223876953 C 35.03614807128906 161.3790283203125 41.09738159179688 164.1663208007813 48.41770935058594 166.1360015869141 C 54.82736206054688 167.8606109619141 62.36618041992188 168.9816436767578 71.46495056152344 169.5630950927734 C 79.84973907470703 170.0989074707031 88.76779937744141 170.1432952880859 97.9295654296875 170.1432952880859 C 106.6664733886719 170.1432952880859 115.904914855957 170.0961761474609 124.371711730957 169.5331726074219 C 133.3926544189453 168.9333190917969 140.8641815185547 167.7888793945313 147.2132415771484 166.0344085693359 C 154.431884765625 164.0396423339844 160.4138031005859 161.2233581542969 165.5007171630859 157.4245300292969 C 168.196533203125 155.4113464355469 170.6854553222656 153.0727386474609 172.8983001708984 150.4737091064453 C 175.2234802246094 147.7427368164063 177.3361206054688 144.6167602539063 179.1775970458984 141.1825866699219 C 182.695556640625 134.6219482421875 185.4088592529297 127.6382598876953 187.2421569824219 120.4255905151367 C 189.1318664550781 112.990966796875 190.0900115966797 105.2928237915039 190.0900115966797 97.54499816894531 C 190.0900115966797 91.26268005371094 189.4573822021484 84.98576354980469 188.2097473144531 78.88864898681641 C 186.9943237304688 72.94905853271484 185.1807708740234 67.10667419433594 182.8194122314453 61.52385711669922 C 180.5004730224609 56.04123687744141 177.6300048828125 50.75291442871094 174.2877349853516 45.80570983886719 C 170.9763641357422 40.90420532226563 167.1732940673828 36.29487609863281 162.9842071533203 32.10578918457031 C 158.7951202392578 27.91670227050781 154.185791015625 24.1136474609375 149.2843017578125 20.80226135253906 C 144.3370971679688 17.46000671386719 139.0487670898438 14.58952331542969 133.566162109375 12.27058410644531 C 127.9833297729492 9.90924072265625 122.1409454345703 8.095672607421875 116.2013549804688 6.880264282226563 C 110.1042404174805 5.632614135742188 103.8273315429688 5 97.54500579833984 5 M 97.54500579833984 0 C 151.4176177978516 0 195.0900115966797 43.67237854003906 195.0900115966797 97.54499816894531 C 195.0900115966797 114.191650390625 190.9201507568359 129.8643493652344 183.5840606689453 143.5454406738281 C 167.1265563964844 174.2372589111328 135.1555328369141 175.1432952880859 97.9295654296875 175.1432952880859 C 60.86521911621094 175.1432952880859 28.2445068359375 174.4179382324219 11.68986511230469 143.8871154785156 C 4.251235961914063 130.1685943603516 0 114.3532638549805 0 97.54499816894531 C 0 43.67237854003906 43.67239379882813 0 97.54500579833984 0 Z" stroke="none" fill="rgba(173,189,248,0.14)"/>
            </g>
          </g>
          <path id="Subtraction_1" data-name="Subtraction 1" d="M9.285,165.962c-2.742,0-5.967,0-9.1-.035,29.869-.291,57.883-2.8,72.422-29.905a92.547,92.547,0,0,0,10.9-43.589A92.014,92.014,0,0,0,0,.425C2.954.142,5.954,0,8.921,0A91.832,91.832,0,0,1,44.9,7.264a92.4,92.4,0,0,1,15.7,8.523A92.9,92.9,0,0,1,85.566,40.753a92.344,92.344,0,0,1,8.522,15.7,91.836,91.836,0,0,1,7.264,35.978,92.746,92.746,0,0,1-2.847,22.848,91.787,91.787,0,0,1-8.057,20.741,50.132,50.132,0,0,1-14.3,16.946,55.78,55.78,0,0,1-18.9,8.929,113.247,113.247,0,0,1-22.591,3.476C26.487,165.916,17.644,165.962,9.285,165.962Z" transform="translate(88.13 4.591)" fill="rgba(254,254,254,0.22)"/>
        </g>
      </g>
    </g>
  </g>
</svg>
