<svg xmlns="http://www.w3.org/2000/svg" xmlns:xlink="http://www.w3.org/1999/xlink" width="1920" height="1080" viewBox="0 0 1920 1080">
  <defs>
    <linearGradient id="linear-gradient" x1="0.5" x2="0.5" y2="1" gradientUnits="objectBoundingBox">
      <stop offset="0" stop-color="#476aea"/>
      <stop offset="1" stop-color="#000827"/>
    </linearGradient>
    <radialGradient id="radial-gradient" cx="0.5" cy="0.5" r="0.5" gradientUnits="objectBoundingBox">
      <stop offset="0" stop-color="#adbdf8" stop-opacity="0"/>
      <stop offset="1" stop-color="#dce4fe" stop-opacity="0.388"/>
    </radialGradient>
    <clipPath id="clip-tac">
      <rect width="1920" height="1080"/>
    </clipPath>
  </defs>
  <g id="tac" clip-path="url(#clip-tac)">
    <rect id="background" width="1920" height="1080" fill="#adbdf8"/>
    <path id="desc" d="M40.838,0H1539.582c22.554,0,40.838,13.47,40.838,30.087V749.913c0,16.616-18.284,30.087-40.838,30.087H40.838C18.284,780,0,766.53,0,749.913V30.087C0,13.47,18.284,0,40.838,0Z" transform="translate(169.79 200)" fill="#fff"/>
    <text id="TERMS_AND_CONDITIONS" data-name="TERMS AND CONDITIONS" transform="translate(960 250)" fill="#2c57f3" font-size="36" font-family="Arial-BoldMT, Arial" font-weight="700"><tspan x="-224.332" y="0">TERMS AND CONDITIONS</tspan></text>
    <text id="These_are_the_Terms_and_Conditions_governing_the_use_of_this_Service_and_the_agreement_that_operates_between_You_and_the_Company._These_Terms_and_Conditions_set_out_the_rights_and_obligations_of_all_users_regarding_the_use_of_the_Service._Your_access_to_a" data-name="These are the Terms and Conditions governing the use of this Service and the agreement that operates between You and the Company. These Terms and Conditions set out the rights and obligations of all users regarding the use of the Service.

Your access to a" transform="translate(259 299)" fill="#646464" font-size="19" font-family="ArialMT, Arial"><tspan x="0" y="17">These are the Terms and Conditions governing the use of this Service and the agreement that operates between You and the Company. These Terms and Conditions </tspan><tspan x="0" y="41">set out the rights and obligations of all users regarding the use of the Service.</tspan><tspan x="0" y="65"></tspan><tspan x="0" y="89">Your access to and use of the Service is conditioned on Your acceptance of and compliance with these Terms and Conditions. These Terms and Conditions apply to </tspan><tspan x="0" y="113">all visitors, users and others who access or use the Service.</tspan><tspan x="0" y="137"></tspan><tspan x="0" y="161">By accessing or using the Service You agree to be bound by these Terms and Conditions. If You disagree with any part of these Terms and Conditions then You may </tspan><tspan x="0" y="185">not access the Service.</tspan><tspan x="0" y="209"></tspan><tspan x="0" y="233">You represent that you are over the age of 16. The Company does not permit those under 16 to use the Service.</tspan><tspan x="0" y="257"></tspan><tspan x="0" y="281">Your access to and use of the Service is also conditioned on Your acceptance of and compliance with the Privacy Policy of the Company. Our Privacy Policy </tspan><tspan x="0" y="305">describes Our policies and procedures on the collection, use and disclosure of Your personal information when You use the Application or the Website and tells You </tspan><tspan x="0" y="329">about Your privacy rights and how the law protects You. Please read Our Privacy Policy carefully before using Our Service.</tspan><tspan x="0" y="353"></tspan><tspan x="0" y="377">Vestibulum ante ipsum primis in faucibus orci luctus et ultrices posuere cubilia curae; Suspendisse in urna augue. Donec finibus quam at justo varius tempor. Nullam </tspan><tspan x="0" y="401">semper, dui non porta pulvinar, ipsum ligula cursus erat, in tincidunt augue mauris ut turpis. Sed sit amet odio ut purus fermentum suscipit. Aliquam laoreet leo finibus </tspan><tspan x="0" y="425">risus fringilla, vel euismod mi interdum. In varius pellentesque purus a varius. Lorem ipsum dolor sit amet, consectetur adipiscing elit. Vivamus pulvinar, tortor vitae </tspan><tspan x="0" y="449">pharetra ultricies, metus purus condimentum lectus, a convallis sapien odio in dui.</tspan><tspan x="0" y="473"></tspan><tspan x="0" y="497">Vestibulum eu quam risus. Donec commodo vel nibh vel blandit. Cras ac odio lobortis, tempus est at, luctus nisl. Nunc sit amet ipsum ut nibh venenatis interdum. </tspan><tspan x="0" y="521">Morbi eu leo ac ex sagittis ornare ac ut libero. Phasellus auctor tellus vitae eros venenatis elementum. Vivamus vel maximus nulla. Integer mollis felis luctus eros </tspan><tspan x="0" y="545">volutpat, eu pulvinar ligula tincidunt.</tspan></text>
    <g id="logo" transform="translate(-108.034 47.69)">
      <g id="logo-2" data-name="logo" transform="translate(181.944 120.408)">
        <g id="logo_consentForm" transform="translate(0 0)">
          <g id="heart_beating" transform="translate(0 0)">
            <ellipse id="Ellipse_1" data-name="Ellipse 1" cx="65.727" cy="13.113" rx="65.727" ry="13.113" transform="translate(32.926 146.865)" fill="#cbd5fb"/>
            <path id="Path_271" data-name="Path 271" d="M4742.6,2637.485a35.1,35.1,0,0,0-19.9-11.368c-7.271-1.217-18.694,1.31-25.235,6.352-13.725,10.468-12.49,31.06-12.49,31.06s.567,10.943,9.092,25.088,12.865,19.657,25.009,31.493,23.568,15.856,23.568,15.856a209.056,209.056,0,0,0,22.805-15.856,112.109,112.109,0,0,0,17.553-18.781s8.149-11.538,11.352-19.692,3.986-21.715,3.986-21.715l-55.746,54.712-33.055-31.94s-5.894-6.168.686-12.885,12.474-1.235,12.474-1.235l19.9,20.7,50.292-49.425s-.721-1.083-1.1-1.6a29.843,29.843,0,0,0-24.815-12.132C4751.775,2626.173,4742.6,2637.485,4742.6,2637.485Z" transform="translate(-4646.307 -2575.988)" fill="url(#linear-gradient)"/>
            <path id="Path_274" data-name="Path 274" d="M841.057,144.9l73.857-73.532L916.7,69.59s2.97-4.028-.761-7.273-7.359.468-7.359.468l-1.922,1.869-65.6,63.778-21.347-22.22a5.386,5.386,0,0,0-8.007,0,6.2,6.2,0,0,0-.723,8.471Z" transform="translate(-744.76 -11.161)" fill="#c5d0fa"/>
            <g id="Path_38" data-name="Path 38" transform="translate(0 0)" fill="url(#radial-gradient)">
              <path d="M97.545,0a97.577,97.577,0,0,1,86.039,143.545c-16.458,30.692-48.429,31.6-85.654,31.6-37.064,0-69.685-.725-86.24-31.256A97.577,97.577,0,0,1,97.545,0Z" stroke="none"/>
              <path d="M 97.54500579833984 5 C 91.26268005371094 5 84.98577117919922 5.632614135742188 78.88865661621094 6.880264282226563 C 72.94906616210938 8.095672607421875 67.10668182373047 9.90924072265625 61.52386474609375 12.27058410644531 C 56.04124450683594 14.58952331542969 50.75291442871094 17.46000671386719 45.80570983886719 20.80226135253906 C 40.90420532226563 24.1136474609375 36.29489135742188 27.91670227050781 32.10580444335938 32.10578918457031 C 27.91671752929688 36.29487609863281 24.1136474609375 40.90420532226563 20.80227661132813 45.80570983886719 C 17.46000671386719 50.75291442871094 14.58953857421875 56.04123687744141 12.27059936523438 61.52385711669922 C 9.90924072265625 67.10667419433594 8.095687866210938 72.94905853271484 6.880264282226563 78.88864898681641 C 5.63262939453125 84.98576354980469 5 91.26268005371094 5 97.54499816894531 C 5 105.3649444580078 5.975265502929688 113.1327362060547 7.898712158203125 120.6325836181641 C 9.762924194335938 127.9014739990234 12.51727294921875 134.9235229492188 16.08529663085938 141.5037994384766 C 17.93270874023438 144.9109191894531 20.05970764160156 148.0122985839844 22.40721130371094 150.7217712402344 C 24.640380859375 153.2993469238281 27.15718078613281 155.6184997558594 29.88764953613281 157.6148223876953 C 35.03614807128906 161.3790283203125 41.09738159179688 164.1663208007813 48.41770935058594 166.1360015869141 C 54.82736206054688 167.8606109619141 62.36618041992188 168.9816436767578 71.46495056152344 169.5630950927734 C 79.84973907470703 170.0989074707031 88.76779937744141 170.1432952880859 97.9295654296875 170.1432952880859 C 106.6664733886719 170.1432952880859 115.904914855957 170.0961761474609 124.371711730957 169.5331726074219 C 133.3926544189453 168.9333190917969 140.8641815185547 167.7888793945313 147.2132415771484 166.0344085693359 C 154.431884765625 164.0396423339844 160.4138031005859 161.2233581542969 165.5007171630859 157.4245300292969 C 168.196533203125 155.4113464355469 170.6854553222656 153.0727386474609 172.8983001708984 150.4737091064453 C 175.2234802246094 147.7427368164063 177.3361206054688 144.6167602539063 179.1775970458984 141.1825866699219 C 182.695556640625 134.6219482421875 185.4088592529297 127.6382598876953 187.2421569824219 120.4255905151367 C 189.1318664550781 112.990966796875 190.0900115966797 105.2928237915039 190.0900115966797 97.54499816894531 C 190.0900115966797 91.26268005371094 189.4573822021484 84.98576354980469 188.2097473144531 78.88864898681641 C 186.9943237304688 72.94905853271484 185.1807708740234 67.10667419433594 182.8194122314453 61.52385711669922 C 180.5004730224609 56.04123687744141 177.6300048828125 50.75291442871094 174.2877349853516 45.80570983886719 C 170.9763641357422 40.90420532226563 167.1732940673828 36.29487609863281 162.9842071533203 32.10578918457031 C 158.7951202392578 27.91670227050781 154.185791015625 24.1136474609375 149.2843017578125 20.80226135253906 C 144.3370971679688 17.46000671386719 139.0487670898438 14.58952331542969 133.566162109375 12.27058410644531 C 127.9833297729492 9.90924072265625 122.1409454345703 8.095672607421875 116.2013549804688 6.880264282226563 C 110.1042404174805 5.632614135742188 103.8273315429688 5 97.54500579833984 5 M 97.54500579833984 0 C 151.4176177978516 0 195.0900115966797 43.67237854003906 195.0900115966797 97.54499816894531 C 195.0900115966797 114.191650390625 190.9201507568359 129.8643493652344 183.5840606689453 143.5454406738281 C 167.1265563964844 174.2372589111328 135.1555328369141 175.1432952880859 97.9295654296875 175.1432952880859 C 60.86521911621094 175.1432952880859 28.2445068359375 174.4179382324219 11.68986511230469 143.8871154785156 C 4.251235961914063 130.1685943603516 0 114.3532638549805 0 97.54499816894531 C 0 43.67237854003906 43.67239379882813 0 97.54500579833984 0 Z" stroke="none" fill="rgba(173,189,248,0.14)"/>
            </g>
          </g>
          <path id="Subtraction_1" data-name="Subtraction 1" d="M9.285,165.962c-2.742,0-5.967,0-9.1-.035,29.869-.291,57.883-2.8,72.422-29.905a92.547,92.547,0,0,0,10.9-43.589A92.014,92.014,0,0,0,0,.425C2.954.142,5.954,0,8.921,0A91.832,91.832,0,0,1,44.9,7.264a92.4,92.4,0,0,1,15.7,8.523A92.9,92.9,0,0,1,85.566,40.753a92.344,92.344,0,0,1,8.522,15.7,91.836,91.836,0,0,1,7.264,35.978,92.746,92.746,0,0,1-2.847,22.848,91.787,91.787,0,0,1-8.057,20.741,50.132,50.132,0,0,1-14.3,16.946,55.78,55.78,0,0,1-18.9,8.929,113.247,113.247,0,0,1-22.591,3.476C26.487,165.916,17.644,165.962,9.285,165.962Z" transform="translate(88.13 4.591)" fill="rgba(254,254,254,0.22)"/>
        </g>
      </g>
    </g>
  </g>
</svg>
